<svg xmlns="http://www.w3.org/2000/svg" width="1583.245" height="1582.279" viewBox="0 0 1583.245 1582.279">
  <path id="Trazado_128" data-name="Trazado 128" d="M1583.245,778.1l-.032-758.953V0H778.1V.547c-208,3.54-396.435,87.669-535.911,222.5l-.1-.1-3.845,3.845-5.728,5.712q-13.273,13.3-25.823,27.11c-1.223,1.352-2.429,2.7-3.636,4.054-14.432,16.025-28.043,32.6-41.027,49.554-2.719,3.572-5.535,7.079-8.205,10.7-5.9,8-11.584,16.121-17.167,24.311q-8.881,13.081-17.248,26.531-7.674,12.26-14.834,24.761c-6.42,11.182-12.63,22.509-18.5,34.028-2.526,4.955-5.084,9.895-7.514,14.9q-11.246,23.265-21.028,47.318c-1.528,3.749-2.928,7.546-4.392,11.327-6.387,16.523-12.389,33.24-17.666,50.262-.338,1.062-.724,2.092-1.046,3.137-4.955,16.17-9.219,32.58-13.129,49.072-.981,4.2-1.915,8.4-2.832,12.614-3.314,15.124-6.259,30.36-8.688,45.741-.274,1.738-.644,3.443-.9,5.18-2.574,17.1-4.441,34.431-5.889,51.871-.37,4.376-.676,8.768-.981,13.161C.853,755.494.048,772.967.032,790.633c0,.338-.032.644-.032.981v13.531l315.925-.016h.016v.016l237.829-.016,224.314.016v448.612l-.193,328.506,13.531.016h.5c211.861,0,410.513-81.893,559.385-230.637l9.573-9.557-1.046-1.046c86.109-89.037,151.012-197.429,187.663-314.654,10.876-34.7,19.4-73.286,26.1-117.965,5.776-38.42,8.688-71.564,9.364-103.292h.29V778.1ZM805.161,27.062H1537L1247.1,316.971l-119.59,119.59c-4.843-4.585-9.782-9.042-14.786-13.418-5.02-4.376-9.927-8.881-15.075-13.032-7.3-5.872-14.882-11.262-22.444-16.668-5.02-3.588-9.911-7.4-15.059-10.78-8.559-5.663-17.441-10.715-26.322-15.8-4.457-2.558-8.785-5.406-13.322-7.8-13.418-7.128-27.126-13.66-41.123-19.468-.322-.129-.644-.257-.965-.4q-21-8.64-42.765-15.285c-4.875-1.5-9.911-2.526-14.85-3.861-9.895-2.7-19.79-5.406-29.877-7.465-6.017-1.239-12.147-2.011-18.229-3.025-9.2-1.512-18.374-3.073-27.689-4.087-6.581-.708-13.242-.981-19.87-1.432-6.661-.451-13.258-1.271-19.967-1.448ZM778.083,330.115V758.937L474.853,455.707q6.83-6.468,13.885-12.6c4.618-4.022,9.155-8.173,13.9-11.986,6.967-5.615,14.207-10.764,21.447-15.928,4.65-3.33,9.2-6.838,13.965-9.991,8.157-5.374,16.6-10.2,25.051-15.027,4.135-2.365,8.141-4.988,12.34-7.224,12.742-6.757,25.742-12.952,39.032-18.47l.322-.129c13.306-5.5,26.885-10.313,40.657-14.545,4.682-1.432,9.492-2.429,14.207-3.717,9.267-2.51,18.518-5.036,27.963-6.983,5.712-1.174,11.552-1.915,17.328-2.88,8.624-1.432,17.231-2.88,25.984-3.829,6.227-.676,12.534-.965,18.808-1.384q9.122-.627,18.342-.9m475.287,447.952-429.079-.016,303.247-303.231c4.038,4.3,8.061,8.624,11.986,13.161,2.7,3.121,5.47,6.13,8.125,9.364,8.093,9.879,15.992,20.128,23.506,30.939l7.8,11.7a452.092,452.092,0,0,1,24.874,43.473,473.87,473.87,0,0,1,19.6,44.47c.418,1.11.9,2.188,1.319,3.3a455.528,455.528,0,0,1,13.836,43.859c.451,1.738.965,3.459,1.4,5.2,3.636,14.464,6.468,29.1,8.656,43.875.306,2.092.644,4.167.917,6.259q2.945,21.986,3.717,44.358c.048,1.094.064,2.2.1,3.3M823.5,331.016c6.291.418,12.6.708,18.824,1.384,8.72.949,17.328,2.413,25.952,3.845,5.776.949,11.616,1.689,17.328,2.864,9.46,1.947,18.744,4.489,28.027,7.015,4.7,1.271,9.493,2.268,14.142,3.684a457.186,457.186,0,0,1,80.027,33.143c4.151,2.22,8.109,4.811,12.2,7.144,8.511,4.859,17.006,9.718,25.211,15.124,4.746,3.137,9.283,6.645,13.933,9.975,7.224,5.149,14.448,10.3,21.4,15.88,4.827,3.877,9.428,8.093,14.126,12.179q6.95,6.082,13.692,12.437l-303.2,303.231V330.115c6.13.177,12.26.483,18.342.9M778.083,27.174V302.587c-6.709.177-13.29,1-19.95,1.432-6.645.45-13.306.74-19.886,1.448-9.316,1.014-18.486,2.558-27.657,4.087-6.1,1.014-12.244,1.77-18.277,3.009-10.056,2.075-19.934,4.762-29.8,7.449-4.972,1.352-10.023,2.4-14.931,3.894q-21.5,6.588-42.3,15.124l-1.979.821q-20.706,8.64-40.544,19.194c-4.634,2.445-9.058,5.358-13.611,7.964-8.769,5.036-17.553,10.04-26.032,15.622-5.2,3.427-10.152,7.288-15.236,10.924-7.5,5.374-15.043,10.715-22.267,16.54-5.181,4.167-10.136,8.7-15.172,13.113-5,4.376-10.217,8.431-15.059,13.032l-.129-.129L260.9,241.754C395.485,111.819,577.5,30.682,778.083,27.174M320.269,661.518c-2.8,10.233-5.583,20.481-7.723,30.923-1.174,5.744-1.9,11.616-2.88,17.408-1.577,9.477-3.17,18.937-4.2,28.542-.692,6.355-.965,12.775-1.4,19.178-.467,6.822-.8,13.643-1,20.514l-275.879-.016c3.379-193.873,79.3-376.42,214.982-516.781L436.126,455.24l.129.129c-4.6,4.843-8.656,10.056-13.032,15.059-4.408,5.036-8.929,9.975-13.113,15.156-5.856,7.288-11.246,14.866-16.652,22.428-3.588,5-7.385,9.895-10.78,15.043-5.7,8.64-10.812,17.6-15.944,26.547-2.494,4.392-5.293,8.624-7.658,13.064a484.014,484.014,0,0,0-35.187,85c-1.4,4.553-2.349,9.251-3.62,13.853m9.4,116.549c.177-5.985.933-11.874,1.319-17.827.434-6.516.74-13.048,1.448-19.5.917-8.463,2.333-16.781,3.7-25.115,1-6.065,1.786-12.179,3.025-18.181,1.866-9.058,4.3-17.923,6.693-26.82,1.384-5.1,2.462-10.265,4.006-15.3,3.958-12.919,8.543-25.614,13.627-38.115.66-1.609,1.3-3.2,1.979-4.811q7.916-18.824,17.473-36.908c2.3-4.36,5.02-8.511,7.481-12.791,4.762-8.318,9.509-16.62,14.786-24.648,3.169-4.811,6.725-9.38,10.072-14.078,5.132-7.192,10.265-14.4,15.832-21.318,3.845-4.778,8.012-9.348,12.067-14,4.087-4.666,8.254-9.283,12.549-13.82L758.954,778.067H329.665ZM804.984,1555.1l.129-274.431c7.192-.193,14.255-1.046,21.4-1.544,5.985-.418,11.986-.66,17.939-1.287,10.474-1.126,20.8-2.832,31.116-4.6,4.891-.837,9.831-1.432,14.673-2.413,12.485-2.542,24.761-5.744,36.957-9.235,2.542-.724,5.165-1.239,7.69-2.011a481.2,481.2,0,0,0,86.559-35.863c1.528-.8,2.96-1.786,4.473-2.606,12.035-6.6,23.86-13.6,35.348-21.221,2.961-1.947,5.76-4.183,8.672-6.194,9.879-6.87,19.629-13.949,29.041-21.575,3.3-2.671,6.436-5.583,9.67-8.35,6.452-5.5,13.048-10.764,19.242-16.62l194.646,194.822c-139.557,134.633-322.36,209.93-517.553,213.132M1546.835,904.4c-6.5,43.3-14.722,80.542-25.163,113.894-35.332,113.026-97.645,217.734-180.584,303.633l-194.1-194.067.129.129-.064.064-9.493,9.493-.29.257-9.3,9.3-.451-.45c3.2-3.025,6.629-5.728,9.75-8.849l.274-.257c3.186-3.2,5.937-6.709,9.042-9.975l-18.551-18.551-9.573,9.557c-.676.676-1.432,1.255-2.124,1.915l-7.482,7.5-.129-.129c-3.3,3.105-6.854,5.792-10.217,8.8-6.339,5.647-12.646,11.326-19.243,16.587-4.762,3.8-9.718,7.256-14.609,10.844-6.822,5.02-13.579,10.136-20.642,14.754-4.891,3.2-10.007,6-15.011,9.01-7.369,4.425-14.641,9.01-22.219,13-4.376,2.317-8.962,4.183-13.4,6.339a454.978,454.978,0,0,1-46.932,19.629c-5.937,2.108-11.761,4.489-17.779,6.355-6.95,2.14-14.078,3.7-21.125,5.519-7.031,1.8-14,3.8-21.141,5.277-6.854,1.432-13.837,2.349-20.755,3.459-7.562,1.19-15.076,2.51-22.718,3.346-6.773.74-13.643,1.062-20.5,1.512-5.744.37-11.5.676-17.3.836l.016-428.838,303.327,303.327c2.574-2.429,5.325-4.617,7.851-7.127l2.076-2.076c3.218-3.218,6-6.741,9.106-10.024L824.291,805.161h428.822c-.177,5.953-.483,11.89-.869,17.811-.434,6.516-.74,13.064-1.448,19.516-.917,8.431-2.333,16.733-3.7,25.035-1,6.1-1.786,12.244-3.025,18.261-1.834,8.913-4.247,17.65-6.6,26.4-1.416,5.245-2.526,10.587-4.119,15.767-3.765,12.26-8.157,24.294-12.935,36.168q-1.786,4.44-3.668,8.849c-5.02,11.745-10.394,23.329-16.395,34.64-2.51,4.746-5.471,9.283-8.173,13.95-4.537,7.9-9.026,15.8-14.046,23.425-3.379,5.116-7.144,9.991-10.715,14.995-4.94,6.886-9.831,13.772-15.156,20.417-4.038,5-8.4,9.782-12.646,14.657-3.958,4.521-7.626,9.251-11.777,13.66l18.792,18.792c4.762-5.02,9.38-10.136,13.9-15.317,4.167-4.778,8.479-9.46,12.437-14.383,6.1-7.562,11.7-15.446,17.312-23.313,3.378-4.747,6.982-9.348,10.184-14.207,5.921-8.962,11.246-18.245,16.54-27.561,2.3-4.055,4.907-7.98,7.1-12.1a481.863,481.863,0,0,0,35.251-85.127c1.352-4.425,2.285-8.978,3.507-13.451,2.848-10.361,5.664-20.723,7.819-31.293,1.175-5.728,1.9-11.552,2.864-17.328,1.593-9.493,3.186-18.969,4.215-28.606.692-6.339.965-12.775,1.4-19.162.467-6.838,1.3-13.611,1.48-20.5h275.4c-.692,30.36-3.668,62.281-9.2,99.237m9.348-126.331H1280.642c-.032-1.384-.29-2.735-.338-4.119-.563-15.574-1.8-31.052-3.829-46.369-.306-2.4-.708-4.794-1.062-7.192-2.3-15.558-5.245-31-9.058-46.24-.467-1.9-1.046-3.781-1.528-5.679-4.135-15.671-8.93-31.213-14.641-46.514-.434-1.142-.933-2.269-1.368-3.411a501.133,501.133,0,0,0-20.835-47.3,485.107,485.107,0,0,0-26.338-46.031l-1.609-2.671c-.869-1.5-1.754-3.009-2.751-4.505-.8-1.191-1.69-2.317-2.574-3.443l-1.352-1.8-.225-.29c-7.9-11.343-16.2-22.139-24.729-32.532-2.751-3.363-5.648-6.452-8.463-9.718-4.328-4.972-8.543-10.168-12.984-14.882l.032-.032.112-.113,5.084-5.084,404-403.932Z" fill="#633fa4" opacity="0.323"/>
</svg>
