<svg xmlns="http://www.w3.org/2000/svg" width="144.462" height="41.509" viewBox="0 0 144.462 41.509">
  <g id="Grupo_39" data-name="Grupo 39" transform="translate(-141.769 -814.177)">
    <text id="_Input_text" data-name="✏️ Input text" transform="translate(232.532 853.687)" fill="#3f1c8e" font-size="8" font-family="Lato-Black, Lato" font-weight="800" letter-spacing="0.05em"><tspan x="-28.598" y="0">CARRIER HUB</tspan></text>
    <g id="Grupo_26" data-name="Grupo 26" transform="translate(141.769 814.177)">
      <g id="Grupo_12" data-name="Grupo 12" transform="translate(0 0)">
        <g id="Grupo_11" data-name="Grupo 11">
          <path id="Trazado_32" data-name="Trazado 32" d="M158.017,85.38h5.789v28.907h-5.789V85.38Z" transform="translate(-158.017 -85.38)" fill="#3f1c8e" fill-rule="evenodd"/>
          <path id="Trazado_33" data-name="Trazado 33" d="M184.7,103.028h4.544V86.46h5.587v20.626a10.568,10.568,0,0,1-.843,4.5,5.729,5.729,0,0,1-2.651,2.736,9.682,9.682,0,0,1-4.422.929H175.9v-2.343a1.968,1.968,0,0,1,1.965-1.965h8a3.555,3.555,0,0,0,2.536-.8,3.289,3.289,0,0,0,.843-2.493H184.3a13,13,0,0,1-4.887-.786,5.708,5.708,0,0,1-2.894-2.529,9.738,9.738,0,0,1-.986-4.765V86.46H181V99.084a11.35,11.35,0,0,0,.064,1.45,4.6,4.6,0,0,0,.322,1.107,1.9,1.9,0,0,0,1.043,1.022,5.563,5.563,0,0,0,2.272.364Z" transform="translate(-50.371 -78.743)" fill="#3f1c8e" fill-rule="evenodd"/>
          <path id="Trazado_34" data-name="Trazado 34" d="M182.858,114.286h-5.787V97.318h-3.979V93.1h3.979V90.488a13.251,13.251,0,0,1,.143-1.65,4.151,4.151,0,0,1,.7-1.85,3.2,3.2,0,0,1,1.772-1.165,9.58,9.58,0,0,1,3.215-.443h5.344v4.179l-.879-.121h-1.45a3.68,3.68,0,0,0-2.293.522c-.507.271-.764.886-.764,1.85V93.1h5.387v4.222h-5.387v16.968Z" transform="translate(-65.388 -85.379)" fill="#3f1c8e" fill-rule="evenodd"/>
          <path id="Trazado_35" data-name="Trazado 35" d="M171.959,86.46h5.789v21.188h-5.789V86.46Z" transform="translate(-72.349 -78.741)" fill="#3f1c8e" fill-rule="evenodd"/>
          <path id="Trazado_36" data-name="Trazado 36" d="M189.3,85.38h5.587V93.1h5.994v4.222H194.89v8.566a5.1,5.1,0,0,0,.622,2.815,2.688,2.688,0,0,0,1.708,1.165,20.332,20.332,0,0,0,3.1.2h.564v4.222h-5.108a6.269,6.269,0,0,1-4.823-1.772,6.788,6.788,0,0,1-1.65-4.823V97.483H175.45c-1.693,0-2.636.464-2.829,1.408v.679q0,1.768,2.658,1.772h5.1a10.646,10.646,0,0,1,2.794.343,6.214,6.214,0,0,1,2.236,1.086,5.091,5.091,0,0,1,1.508,1.886,6.163,6.163,0,0,1,.543,2.636,8.04,8.04,0,0,1-.521,3.058,8.592,8.592,0,0,1-1.007,1.865,7.3,7.3,0,0,1-1.486,1.35,4.78,4.78,0,0,1-2.815.722H167.277v-2.422a1.956,1.956,0,0,1,1.958-1.958h9.824q2.968,0,2.972-2.136,0-2.047-2.972-2.05h-4.865c-.7,0-1.25-.007-1.65-.036s-.979-.1-1.729-.221a5.082,5.082,0,0,1-2.05-.807,3.838,3.838,0,0,1-1.408-1.85,8.058,8.058,0,0,1-.479-2.951q0-6.751,7.473-6.759H189.3V85.38Z" transform="translate(-103.576 -85.379)" fill="#3f1c8e" fill-rule="evenodd"/>
          <path id="Trazado_37" data-name="Trazado 37" d="M165.8,86.46h5.789v21.188H165.8V86.46Z" transform="translate(-110.219 -78.741)" fill="#3f1c8e" fill-rule="evenodd"/>
          <path id="Trazado_38" data-name="Trazado 38" d="M173.586,86.46c-.264,0-.629.007-1.086.021s-1.115.079-1.972.186c-5.516.686-8.038,5.187-8.038,10.452a12.817,12.817,0,0,0,.786,4.58A9.009,9.009,0,0,0,168,106.886a8.37,8.37,0,0,0,2.308.643,25.935,25.935,0,0,0,2.758.122h5.065c0,2.2-1.129,3.294-3.379,3.294h-8.009a1.962,1.962,0,0,0-1.958,1.965v2.343h10.974a10.321,10.321,0,0,0,4.622-.929,6.034,6.034,0,0,0,2.593-2.872,11.413,11.413,0,0,0,.822-4.608V86.46Zm4.544,16.811h-3.579a14.315,14.315,0,0,1-2.35-.164,3.748,3.748,0,0,1-1.672-.722c-1.443-1.022-2.172-2.722-2.172-5.108V96.034a5.441,5.441,0,0,1,.307-1.872,5.637,5.637,0,0,1,.993-1.65,3.906,3.906,0,0,1,2.136-1.186,14.4,14.4,0,0,1,3.386-.357h2.308l.643.036Z" transform="translate(-130.525 -78.743)" fill="#3f1c8e"/>
          <path id="Trazado_39" data-name="Trazado 39" d="M180.966,93.457a13.948,13.948,0,0,0-1.165-2.415,12.605,12.605,0,0,0-1.75-2.008,8.959,8.959,0,0,0-3.3-1.886,13.346,13.346,0,0,0-8.923.036,8.942,8.942,0,0,0-3.258,1.929,12.739,12.739,0,0,0-1.686,1.993,14.18,14.18,0,0,0-1.165,2.429,10.719,10.719,0,0,0-.622,3.879,12.059,12.059,0,0,0,.2,2.272,15.963,15.963,0,0,0,.843,2.736,8.436,8.436,0,0,0,2.108,3.072,10.055,10.055,0,0,0,3.679,2.193,13.222,13.222,0,0,0,4.422.786,12.155,12.155,0,0,0,2.25-.2,18.037,18.037,0,0,0,2.693-.786,9.258,9.258,0,0,0,3.136-1.993,10.1,10.1,0,0,0,2.358-3.672,12.592,12.592,0,0,0,.779-4.408A11.065,11.065,0,0,0,180.966,93.457Zm-5.687,6.973a4.826,4.826,0,0,1-1.872,2.458,5.257,5.257,0,0,1-3.136,1,5.848,5.848,0,0,1-.986-.079,2.737,2.737,0,0,1-.822-.243,4.963,4.963,0,0,1-2.672-2.372,7.784,7.784,0,0,1-.865-3.694,8.54,8.54,0,0,1,.379-2.694,5.409,5.409,0,0,1,1.107-1.972,5.766,5.766,0,0,1,1.807-1.329,5.957,5.957,0,0,1,2.172-.443,6.09,6.09,0,0,1,2.05.407,4.744,4.744,0,0,1,2.515,2.308,8.33,8.33,0,0,1,.779,3.722A9.608,9.608,0,0,1,175.279,100.43Z" transform="translate(-151.379 -79.124)" fill="#3f1c8e"/>
        </g>
        <ellipse id="Elipse_3" data-name="Elipse 3" cx="2.708" cy="2.708" rx="2.708" ry="2.708" transform="translate(55.764 0.786)" fill="#3f1c8e"/>
        <ellipse id="Elipse_4" data-name="Elipse 4" cx="2.708" cy="2.708" rx="2.708" ry="2.708" transform="translate(99.797 0.786)" fill="#3f1c8e"/>
      </g>
    </g>
  </g>
</svg>
