<svg xmlns="http://www.w3.org/2000/svg" width="217.781" height="72.221" viewBox="0 0 217.781 72.221">
  <g id="Grupo_961" data-name="Grupo 961" transform="translate(-819 -152)">
    <rect id="Rectángulo_367" data-name="Rectángulo 367" width="217.781" height="72.221" transform="translate(819 152)" fill="#ffb92d"/>
    <g id="Grupo_637" data-name="Grupo 637" transform="translate(713.723 -12.297)">
      <text id="_Input_text" data-name="✏️ Input text" transform="translate(234 226)" fill="#3f1c8e" font-size="11" font-family="Lato-Black, Lato" font-weight="800" letter-spacing="0.05em"><tspan x="-39.322" y="0">CARRIER HUB</tspan></text>
      <g id="Grupo_26" data-name="Grupo 26" transform="translate(100 160.383)">
        <g id="Grupo_12" data-name="Grupo 12" transform="translate(25.278 14.913)">
          <g id="Grupo_11" data-name="Grupo 11">
            <path id="Trazado_32" data-name="Trazado 32" d="M158.017,85.38h7.111v35.507h-7.111V85.38Z" transform="translate(-158.017 -85.38)" fill="#3f1c8e" fill-rule="evenodd"/>
            <path id="Trazado_33" data-name="Trazado 33" d="M186.8,106.81h5.581V86.46h6.862v25.335a12.981,12.981,0,0,1-1.035,5.529,7.036,7.036,0,0,1-3.256,3.361,11.892,11.892,0,0,1-5.432,1.141H175.984v-2.878a2.418,2.418,0,0,1,2.413-2.413h9.829a4.367,4.367,0,0,0,3.115-.983,4.04,4.04,0,0,0,1.035-3.063H186.3a15.968,15.968,0,0,1-6-.965,7.011,7.011,0,0,1-3.554-3.107,11.961,11.961,0,0,1-1.211-5.853V86.46h6.713v15.506a13.939,13.939,0,0,0,.079,1.781,5.648,5.648,0,0,0,.395,1.36A2.332,2.332,0,0,0,184,106.363a6.833,6.833,0,0,0,2.791.448Z" transform="translate(-21.796 -76.981)" fill="#3f1c8e" fill-rule="evenodd"/>
            <path id="Trazado_34" data-name="Trazado 34" d="M185.088,120.886H177.98V100.044h-4.888V94.858h4.888v-3.2a16.278,16.278,0,0,1,.176-2.027,5.1,5.1,0,0,1,.86-2.273,3.926,3.926,0,0,1,2.176-1.43,11.767,11.767,0,0,1,3.949-.544H191.7v5.134l-1.079-.149h-1.781a4.52,4.52,0,0,0-2.817.641c-.623.333-.939,1.088-.939,2.273v1.58H191.7v5.186h-6.617v20.842Z" transform="translate(-40.799 -85.379)" fill="#3f1c8e" fill-rule="evenodd"/>
            <path id="Trazado_35" data-name="Trazado 35" d="M171.959,86.46h7.111v26.025h-7.111V86.46Z" transform="translate(-49.608 -76.979)" fill="#3f1c8e" fill-rule="evenodd"/>
            <path id="Trazado_36" data-name="Trazado 36" d="M194.423,85.38h6.862v9.478h7.363v5.186h-7.363v10.522a6.269,6.269,0,0,0,.763,3.458,3.3,3.3,0,0,0,2.1,1.43,24.974,24.974,0,0,0,3.809.246h.693v5.186h-6.274a7.7,7.7,0,0,1-5.924-2.176,8.338,8.338,0,0,1-2.027-5.923v-12.54H177.408c-2.08,0-3.238.57-3.475,1.729v.834q0,2.172,3.264,2.176h6.266a13.077,13.077,0,0,1,3.431.421,7.632,7.632,0,0,1,2.747,1.334,6.253,6.253,0,0,1,1.852,2.317,7.57,7.57,0,0,1,.667,3.238,9.875,9.875,0,0,1-.641,3.756,10.553,10.553,0,0,1-1.237,2.29A8.97,8.97,0,0,1,188.456,120a5.872,5.872,0,0,1-3.458.886h-17.63v-2.975a2.4,2.4,0,0,1,2.4-2.4h12.066q3.646,0,3.651-2.624,0-2.514-3.651-2.519h-5.976c-.86,0-1.536-.009-2.027-.044s-1.2-.123-2.124-.272a6.242,6.242,0,0,1-2.518-.992,4.715,4.715,0,0,1-1.729-2.273,9.9,9.9,0,0,1-.588-3.624q0-8.293,9.179-8.3h18.367V85.38Z" transform="translate(-89.124 -85.379)" fill="#3f1c8e" fill-rule="evenodd"/>
            <path id="Trazado_37" data-name="Trazado 37" d="M165.8,86.46h7.111v26.025H165.8V86.46Z" transform="translate(-97.53 -76.979)" fill="#3f1c8e" fill-rule="evenodd"/>
            <path id="Trazado_38" data-name="Trazado 38" d="M176.119,86.46c-.325,0-.772.009-1.334.026s-1.369.1-2.422.228c-6.775.842-9.872,6.371-9.872,12.839a15.743,15.743,0,0,0,.965,5.625,11.065,11.065,0,0,0,5.8,6.371,10.281,10.281,0,0,0,2.835.79,31.857,31.857,0,0,0,3.387.149H181.7c0,2.7-1.386,4.046-4.151,4.046h-9.837a2.41,2.41,0,0,0-2.4,2.413v2.878h13.479a12.677,12.677,0,0,0,5.678-1.141,7.412,7.412,0,0,0,3.186-3.528,14.019,14.019,0,0,0,1.009-5.66V86.46Zm5.581,20.649h-4.4a17.583,17.583,0,0,1-2.887-.2,4.6,4.6,0,0,1-2.054-.886c-1.773-1.255-2.668-3.343-2.668-6.275V98.219a6.683,6.683,0,0,1,.377-2.3,6.923,6.923,0,0,1,1.22-2.027,4.8,4.8,0,0,1,2.624-1.457,17.69,17.69,0,0,1,4.16-.439h2.834l.79.044Z" transform="translate(-123.228 -76.981)" fill="#3f1c8e"/>
            <path id="Trazado_39" data-name="Trazado 39" d="M185.959,95.068a17.132,17.132,0,0,0-1.43-2.966,15.483,15.483,0,0,0-2.15-2.466,11,11,0,0,0-4.054-2.317,16.392,16.392,0,0,0-10.961.044,10.983,10.983,0,0,0-4,2.369,15.648,15.648,0,0,0-2.071,2.448,17.419,17.419,0,0,0-1.43,2.984,13.166,13.166,0,0,0-.764,4.765,14.812,14.812,0,0,0,.246,2.791,19.607,19.607,0,0,0,1.035,3.361,10.361,10.361,0,0,0,2.589,3.773,12.351,12.351,0,0,0,4.519,2.694,16.24,16.24,0,0,0,5.432.965,14.929,14.929,0,0,0,2.764-.246,22.155,22.155,0,0,0,3.308-.965,11.371,11.371,0,0,0,3.852-2.448,12.409,12.409,0,0,0,2.9-4.511,15.467,15.467,0,0,0,.957-5.414A13.591,13.591,0,0,0,185.959,95.068Zm-6.985,8.565a5.928,5.928,0,0,1-2.3,3.019,6.457,6.457,0,0,1-3.853,1.229,7.183,7.183,0,0,1-1.211-.1,3.362,3.362,0,0,1-1.009-.3,6.1,6.1,0,0,1-3.282-2.913,9.561,9.561,0,0,1-1.062-4.537,10.49,10.49,0,0,1,.465-3.308,6.644,6.644,0,0,1,1.36-2.422,7.083,7.083,0,0,1,2.22-1.632,7.317,7.317,0,0,1,2.668-.544,7.481,7.481,0,0,1,2.519.5,5.827,5.827,0,0,1,3.089,2.834,10.231,10.231,0,0,1,.956,4.572A11.8,11.8,0,0,1,178.974,103.633Z" transform="translate(-149.618 -77.463)" fill="#3f1c8e"/>
          </g>
          <ellipse id="Elipse_3" data-name="Elipse 3" cx="3.326" cy="3.326" rx="3.326" ry="3.326" transform="translate(68.495 0.965)" fill="#3f1c8e"/>
          <ellipse id="Elipse_4" data-name="Elipse 4" cx="3.326" cy="3.326" rx="3.326" ry="3.326" transform="translate(122.581 0.965)" fill="#3f1c8e"/>
        </g>
      </g>
    </g>
  </g>
</svg>
