<svg xmlns="http://www.w3.org/2000/svg" width="98.161" height="28.964" viewBox="0 0 98.161 28.964">
  <g id="Grupo_52" data-name="Grupo 52" transform="translate(-125.278 -175.297)">
    <text id="_Input_text" data-name="✏️ Input text" transform="translate(184.848 203.26)" fill="#fff" font-size="6" font-family="Lato-Black, Lato" font-weight="800" letter-spacing="0.05em"><tspan x="-21.448" y="0">CARRIER HUB</tspan></text>
    <g id="Grupo_26" data-name="Grupo 26" transform="translate(125.278 175.297)">
      <g id="Grupo_12" data-name="Grupo 12" transform="translate(0 0)">
        <g id="Grupo_11" data-name="Grupo 11">
          <path id="Trazado_32" data-name="Trazado 32" d="M158.017,85.38h3.934v19.642h-3.934V85.38Z" transform="translate(-158.017 -85.38)" fill="#fff" fill-rule="evenodd"/>
          <path id="Trazado_33" data-name="Trazado 33" d="M181.764,97.718h3.087V86.46h3.8v14.015a7.181,7.181,0,0,1-.573,3.058,3.893,3.893,0,0,1-1.8,1.859,6.579,6.579,0,0,1-3,.631h-7.486v-1.592a1.337,1.337,0,0,1,1.335-1.335h5.437a2.416,2.416,0,0,0,1.723-.544,2.235,2.235,0,0,0,.573-1.694h-3.359a8.834,8.834,0,0,1-3.321-.534,3.878,3.878,0,0,1-1.966-1.719,6.617,6.617,0,0,1-.67-3.238V86.46h3.714v8.578a7.709,7.709,0,0,0,.044.985,3.124,3.124,0,0,0,.218.752,1.29,1.29,0,0,0,.709.694,3.78,3.78,0,0,0,1.544.248Z" transform="translate(-90.488 -81.216)" fill="#fff" fill-rule="evenodd"/>
          <path id="Trazado_34" data-name="Trazado 34" d="M179.728,105.022H175.8V93.492h-2.7V90.623h2.7V88.851a9.005,9.005,0,0,1,.1-1.121,2.821,2.821,0,0,1,.476-1.257,2.172,2.172,0,0,1,1.2-.791,6.509,6.509,0,0,1,2.185-.3h3.631v2.84l-.6-.083h-.986a2.5,2.5,0,0,0-1.558.354c-.345.184-.519.6-.519,1.257v.874h3.66v2.869h-3.66v11.53Z" transform="translate(-99.908 -85.379)" fill="#fff" fill-rule="evenodd"/>
          <path id="Trazado_35" data-name="Trazado 35" d="M171.959,86.46h3.934v14.4h-3.934V86.46Z" transform="translate(-104.275 -81.215)" fill="#fff" fill-rule="evenodd"/>
          <path id="Trazado_36" data-name="Trazado 36" d="M182.116,85.38h3.8v5.243h4.073v2.869h-4.073v5.821a3.468,3.468,0,0,0,.422,1.913,1.827,1.827,0,0,0,1.16.791,13.817,13.817,0,0,0,2.107.136h.383v2.869h-3.471a4.26,4.26,0,0,1-3.277-1.2,4.613,4.613,0,0,1-1.121-3.277V93.6H172.7c-1.151,0-1.791.316-1.922.956v.461q0,1.2,1.806,1.2h3.466a7.234,7.234,0,0,1,1.9.233,4.222,4.222,0,0,1,1.519.738,3.459,3.459,0,0,1,1.024,1.282,4.187,4.187,0,0,1,.369,1.791,5.463,5.463,0,0,1-.354,2.078,5.838,5.838,0,0,1-.684,1.267,4.962,4.962,0,0,1-1.01.917,3.248,3.248,0,0,1-1.913.49h-9.753v-1.646a1.329,1.329,0,0,1,1.33-1.33h6.675q2.017,0,2.019-1.452,0-1.391-2.019-1.393h-3.306c-.476,0-.85,0-1.121-.024s-.665-.068-1.175-.15a3.453,3.453,0,0,1-1.393-.549,2.608,2.608,0,0,1-.956-1.257,5.476,5.476,0,0,1-.325-2q0-4.588,5.078-4.592h10.161V85.38Z" transform="translate(-123.864 -85.379)" fill="#fff" fill-rule="evenodd"/>
          <path id="Trazado_37" data-name="Trazado 37" d="M165.8,86.46h3.934v14.4H165.8V86.46Z" transform="translate(-128.032 -81.215)" fill="#fff" fill-rule="evenodd"/>
          <path id="Trazado_38" data-name="Trazado 38" d="M170.03,86.46c-.18,0-.427,0-.738.015s-.757.053-1.34.126c-3.748.466-5.461,3.524-5.461,7.1a8.709,8.709,0,0,0,.534,3.112,6.121,6.121,0,0,0,3.209,3.524,5.687,5.687,0,0,0,1.568.437,17.624,17.624,0,0,0,1.874.083h3.442a2,2,0,0,1-2.3,2.238h-5.442a1.333,1.333,0,0,0-1.33,1.335v1.592h7.457a7.013,7.013,0,0,0,3.141-.631,4.1,4.1,0,0,0,1.762-1.952,7.755,7.755,0,0,0,.558-3.131V86.46Zm3.087,11.423h-2.432a9.726,9.726,0,0,1-1.6-.112,2.547,2.547,0,0,1-1.136-.49,3.956,3.956,0,0,1-1.476-3.471v-.845a3.7,3.7,0,0,1,.209-1.272,3.83,3.83,0,0,1,.675-1.121,2.654,2.654,0,0,1,1.452-.806,9.786,9.786,0,0,1,2.3-.243h1.568l.437.024Z" transform="translate(-140.771 -81.216)" fill="#fff"/>
          <path id="Trazado_39" data-name="Trazado 39" d="M173.957,91.194a9.476,9.476,0,0,0-.791-1.641,8.565,8.565,0,0,0-1.189-1.364,6.088,6.088,0,0,0-2.243-1.282,9.068,9.068,0,0,0-6.063.024,6.076,6.076,0,0,0-2.214,1.311,8.656,8.656,0,0,0-1.146,1.354,9.637,9.637,0,0,0-.791,1.651,7.284,7.284,0,0,0-.422,2.636,8.192,8.192,0,0,0,.136,1.544,10.845,10.845,0,0,0,.573,1.859,5.732,5.732,0,0,0,1.432,2.087,6.832,6.832,0,0,0,2.5,1.49,8.984,8.984,0,0,0,3.005.534,8.259,8.259,0,0,0,1.529-.136,12.256,12.256,0,0,0,1.83-.534,6.291,6.291,0,0,0,2.131-1.354,6.865,6.865,0,0,0,1.6-2.5,8.556,8.556,0,0,0,.529-3A7.518,7.518,0,0,0,173.957,91.194Zm-3.864,4.738a3.279,3.279,0,0,1-1.272,1.67,3.572,3.572,0,0,1-2.131.68,3.974,3.974,0,0,1-.67-.053,1.86,1.86,0,0,1-.558-.165,3.373,3.373,0,0,1-1.816-1.612,5.289,5.289,0,0,1-.587-2.51,5.8,5.8,0,0,1,.257-1.83,3.675,3.675,0,0,1,.752-1.34,3.918,3.918,0,0,1,1.228-.9,4.048,4.048,0,0,1,1.476-.3,4.138,4.138,0,0,1,1.393.277,3.224,3.224,0,0,1,1.709,1.568,5.66,5.66,0,0,1,.529,2.529A6.528,6.528,0,0,1,170.093,95.932Z" transform="translate(-153.853 -81.455)" fill="#fff"/>
        </g>
        <ellipse id="Elipse_3" data-name="Elipse 3" cx="1.84" cy="1.84" rx="1.84" ry="1.84" transform="translate(37.891 0.534)" fill="#fff"/>
        <ellipse id="Elipse_4" data-name="Elipse 4" cx="1.84" cy="1.84" rx="1.84" ry="1.84" transform="translate(67.811 0.534)" fill="#fff"/>
      </g>
    </g>
  </g>
</svg>
