<?xml version="1.0" standalone="no"?>
<!DOCTYPE svg PUBLIC "-//W3C//DTD SVG 20010904//EN"
 "http://www.w3.org/TR/2001/REC-SVG-20010904/DTD/svg10.dtd">
<svg version="1.0" xmlns="http://www.w3.org/2000/svg"
 width="470.000000pt" height="470.000000pt" viewBox="0 0 470.000000 470.000000"
 preserveAspectRatio="xMidYMid meet">
<metadata>
Created by potrace 1.14, written by Peter Selinger 2001-2017
</metadata>
<g transform="translate(0.000000,470.000000) scale(0.100000,-0.100000)"
fill="#000000" stroke="none">
<path d="M2137 4539 c-528 -56 -992 -281 -1363 -660 -380 -390 -597 -890 -621
-1426 l-6 -143 1081 0 1082 0 0 -1082 0 -1081 128 7 c491 26 925 188 1292 483
359 288 651 748 753 1188 63 270 61 207 64 1523 l4 1202 -1168 -1 c-642 -1
-1203 -5 -1246 -10z m2273 -67 c0 -4 -254 -261 -564 -571 l-565 -565 -43 40
c-196 180 -474 296 -790 329 l-58 6 0 385 0 384 1010 0 c556 0 1010 -3 1010
-8z m-2100 -381 l0 -380 -57 -6 c-220 -24 -359 -62 -525 -146 -70 -35 -208
-129 -267 -181 l-45 -39 -268 268 c-147 147 -268 271 -268 275 0 14 195 170
300 240 122 82 346 193 476 237 190 64 419 108 577 110 l77 1 0 -379z m2160
-691 l0 -1010 -379 0 -380 0 -6 58 c-12 116 -37 239 -66 327 -55 163 -156 344
-256 455 l-46 52 564 564 c310 310 565 564 566 564 2 0 3 -454 3 -1010z
m-3377 152 l267 -268 -46 -54 c-97 -113 -196 -284 -248 -428 -29 -83 -61 -234
-71 -339 l-7 -73 -384 0 -384 0 6 63 c19 219 37 325 80 481 77 273 233 563
425 789 46 53 86 97 89 97 3 0 126 -121 273 -268z m1217 -514 l0 -593 -420
420 -421 420 43 38 c196 172 513 302 746 306 l52 1 0 -592z m345 558 c199 -49
382 -144 538 -279 l37 -32 -420 -420 -420 -420 0 594 0 594 83 -6 c45 -4 127
-18 182 -31z m-820 -786 l420 -420 -593 0 -592 0 0 49 c0 169 92 446 203 611
29 43 135 180 140 180 1 0 191 -189 422 -420z m1539 310 c134 -172 234 -429
252 -646 l7 -84 -594 0 -594 0 420 420 420 421 23 -28 c13 -16 43 -53 66 -83z
m253 -885 c-22 -260 -136 -530 -305 -723 l-37 -43 -420 421 -420 420 594 0
594 0 -6 -75z m840 -22 c-24 -396 -160 -773 -393 -1100 -57 -79 -184 -231
-194 -232 -3 -1 -126 120 -274 268 l-270 270 40 43 c106 115 212 302 265 466
27 86 49 201 65 335 l5 47 381 0 381 0 -6 -97z m-1279 -836 c-108 -94 -289
-197 -433 -246 -85 -28 -254 -61 -314 -61 l-51 0 0 592 0 593 420 -420 421
-420 -43 -38z m632 -559 c0 -15 -195 -171 -300 -240 -202 -134 -469 -248 -703
-299 -109 -24 -300 -49 -374 -49 l-53 0 0 379 0 379 63 7 c309 32 531 122 762
308 l70 57 268 -268 c147 -147 267 -270 267 -274z"/>
</g>
</svg>
